<svg xmlns="http://www.w3.org/2000/svg" viewBox="0 0 600 600">
<defs><linearGradient id="g" x1="0" y1="0" x2="0.3" y2="1">
<stop offset="0" stop-color="#0f1729"/><stop offset="1" stop-color="#1e2b50"/></linearGradient></defs>
<rect width="600" height="600" fill="url(#g)"/>
<circle cx="130.0" cy="376.4" r="0.9" fill="#e8d5a0" fill-opacity="0.79"/>
<circle cx="460.4" cy="357.9" r="1.1" fill="#e8d5a0" fill-opacity="0.57"/>
<circle cx="398.1" cy="200.3" r="2.3" fill="#e8d5a0" fill-opacity="0.79"/>
<circle cx="189.3" cy="505.6" r="0.7" fill="#e8d5a0" fill-opacity="0.75"/>
<circle cx="324.8" cy="253.3" r="2.2" fill="#e8d5a0" fill-opacity="0.41"/>
<circle cx="406.5" cy="67.5" r="2.1" fill="#f0ead9" fill-opacity="0.45"/>
<circle cx="213.9" cy="483.4" r="0.9" fill="#f0ead9" fill-opacity="0.91"/>
<circle cx="571.2" cy="14.0" r="0.9" fill="#e8d5a0" fill-opacity="0.89"/>
<circle cx="413.4" cy="216.6" r="1.3" fill="#f0ead9" fill-opacity="0.37"/>
<circle cx="253.7" cy="359.9" r="1.6" fill="#f0ead9" fill-opacity="0.75"/>
<circle cx="49.4" cy="290.0" r="0.8" fill="#e8d5a0" fill-opacity="0.84"/>
<circle cx="469.0" cy="97.7" r="1.6" fill="#e8d5a0" fill-opacity="0.59"/>
<circle cx="358.9" cy="184.9" r="1.3" fill="#f0ead9" fill-opacity="0.90"/>
<circle cx="9.7" cy="531.2" r="1.9" fill="#f0ead9" fill-opacity="0.93"/>
<circle cx="23.2" cy="360.7" r="1.5" fill="#e8d5a0" fill-opacity="0.55"/>
<circle cx="579.3" cy="8.5" r="1.8" fill="#e8d5a0" fill-opacity="0.81"/>
<circle cx="501.8" cy="187.7" r="1.0" fill="#e8d5a0" fill-opacity="0.60"/>
<circle cx="326.1" cy="455.6" r="1.2" fill="#e8d5a0" fill-opacity="0.91"/>
<circle cx="365.0" cy="480.8" r="1.5" fill="#e8d5a0" fill-opacity="0.54"/>
<circle cx="375.9" cy="509.5" r="1.7" fill="#e8d5a0" fill-opacity="0.50"/>
<circle cx="227.5" cy="432.5" r="0.8" fill="#e8d5a0" fill-opacity="0.52"/>
<circle cx="365.9" cy="451.7" r="2.3" fill="#e8d5a0" fill-opacity="0.73"/>
<circle cx="282.0" cy="346.6" r="0.7" fill="#f0ead9" fill-opacity="0.68"/>
<circle cx="377.5" cy="341.4" r="2.2" fill="#f0ead9" fill-opacity="0.63"/>
<circle cx="32.2" cy="571.2" r="0.9" fill="#e8d5a0" fill-opacity="0.84"/>
<circle cx="270.0" cy="348.9" r="1.5" fill="#f0ead9" fill-opacity="0.59"/>
<circle cx="226.2" cy="232.1" r="2.0" fill="#f0ead9" fill-opacity="0.69"/>
<circle cx="13.7" cy="289.3" r="0.9" fill="#e8d5a0" fill-opacity="0.92"/>
<circle cx="389.9" cy="566.6" r="0.9" fill="#e8d5a0" fill-opacity="0.89"/>
<circle cx="423.4" cy="154.9" r="2.2" fill="#e8d5a0" fill-opacity="0.75"/>
<circle cx="360.5" cy="256.0" r="2.3" fill="#e8d5a0" fill-opacity="0.41"/>
<circle cx="91.8" cy="449.5" r="0.7" fill="#f0ead9" fill-opacity="0.42"/>
<circle cx="419.3" cy="159.5" r="1.1" fill="#e8d5a0" fill-opacity="0.85"/>
<circle cx="522.6" cy="521.3" r="2.1" fill="#e8d5a0" fill-opacity="0.56"/>
<circle cx="25.7" cy="47.7" r="1.1" fill="#e8d5a0" fill-opacity="0.43"/>
<circle cx="263.8" cy="296.1" r="2.3" fill="#e8d5a0" fill-opacity="0.46"/>
<circle cx="549.9" cy="535.2" r="1.9" fill="#f0ead9" fill-opacity="0.83"/>
<circle cx="241.4" cy="11.1" r="2.2" fill="#f0ead9" fill-opacity="0.37"/>
<circle cx="6.9" cy="14.7" r="0.9" fill="#f0ead9" fill-opacity="0.81"/>
<circle cx="492.6" cy="347.7" r="2.0" fill="#f0ead9" fill-opacity="0.67"/>
<circle cx="189.2" cy="389.9" r="0.7" fill="#e8d5a0" fill-opacity="0.89"/>
<circle cx="298.6" cy="565.2" r="2.1" fill="#f0ead9" fill-opacity="0.76"/>
<circle cx="400.5" cy="8.9" r="0.7" fill="#f0ead9" fill-opacity="0.72"/>
<circle cx="518.8" cy="33.9" r="2.0" fill="#e8d5a0" fill-opacity="0.85"/>
<circle cx="588.9" cy="197.6" r="0.9" fill="#f0ead9" fill-opacity="0.36"/>
<circle cx="323.6" cy="168.6" r="1.7" fill="#e8d5a0" fill-opacity="0.43"/>
<circle cx="80.5" cy="193.2" r="0.9" fill="#e8d5a0" fill-opacity="0.89"/>
<circle cx="327.8" cy="162.0" r="0.9" fill="#e8d5a0" fill-opacity="0.86"/>
<circle cx="312.1" cy="277.0" r="1.6" fill="#f0ead9" fill-opacity="0.47"/>
<circle cx="124.0" cy="317.8" r="1.1" fill="#f0ead9" fill-opacity="0.46"/>
<path d="M90 480 L210 420 L330 470 L460 410" fill="none" stroke="#e8d5a0" stroke-opacity="0.35" stroke-width="1"/><circle cx="90" cy="480" r="3" fill="#e8d5a0" fill-opacity="0.8"/><circle cx="210" cy="420" r="3" fill="#e8d5a0" fill-opacity="0.8"/><circle cx="330" cy="470" r="3" fill="#e8d5a0" fill-opacity="0.8"/><circle cx="460" cy="410" r="3" fill="#e8d5a0" fill-opacity="0.8"/>
</svg>