<svg xmlns="http://www.w3.org/2000/svg" viewBox="0 0 600 600">
<defs><linearGradient id="g2" x1="0" y1="0" x2="1" y2="1">
<stop offset="0" stop-color="#5a2839"/><stop offset="1" stop-color="#3a1826"/></linearGradient></defs>
<rect width="600" height="600" fill="url(#g2)"/><rect x="18" y="18" width="564" height="564" fill="none" stroke="#c9a154" stroke-opacity="0.6" stroke-width="1.5"/>
<rect x="26" y="26" width="548" height="548" fill="none" stroke="#c9a154" stroke-opacity="0.3" stroke-width="1"/><g opacity="0.9"><ellipse cx="430" cy="136.475" rx="48.51" ry="71.61" fill="#f0c3cc" fill-opacity="0.85" transform="rotate(44 430 200)"/><ellipse cx="430" cy="136.475" rx="48.51" ry="71.61" fill="#f0c3cc" fill-opacity="0.85" transform="rotate(84 430 200)"/><ellipse cx="430" cy="136.475" rx="48.51" ry="71.61" fill="#f0c3cc" fill-opacity="0.85" transform="rotate(124 430 200)"/><ellipse cx="430" cy="136.475" rx="48.51" ry="71.61" fill="#f0c3cc" fill-opacity="0.85" transform="rotate(164 430 200)"/><ellipse cx="430" cy="136.475" rx="48.51" ry="71.61" fill="#f0c3cc" fill-opacity="0.85" transform="rotate(204 430 200)"/><ellipse cx="430" cy="136.475" rx="48.51" ry="71.61" fill="#f0c3cc" fill-opacity="0.85" transform="rotate(244 430 200)"/><ellipse cx="430" cy="136.475" rx="48.51" ry="71.61" fill="#f0c3cc" fill-opacity="0.85" transform="rotate(284 430 200)"/><ellipse cx="430" cy="136.475" rx="48.51" ry="71.61" fill="#f0c3cc" fill-opacity="0.85" transform="rotate(324 430 200)"/><ellipse cx="430" cy="136.475" rx="48.51" ry="71.61" fill="#f0c3cc" fill-opacity="0.85" transform="rotate(364 430 200)"/><ellipse cx="430" cy="154.625" rx="34.65" ry="51.15" fill="#d98a9e" fill-opacity="0.85" transform="rotate(22 430 200)"/><ellipse cx="430" cy="154.625" rx="34.65" ry="51.15" fill="#d98a9e" fill-opacity="0.85" transform="rotate(73.42857142857143 430 200)"/><ellipse cx="430" cy="154.625" rx="34.65" ry="51.15" fill="#d98a9e" fill-opacity="0.85" transform="rotate(124.85714285714286 430 200)"/><ellipse cx="430" cy="154.625" rx="34.65" ry="51.15" fill="#d98a9e" fill-opacity="0.85" transform="rotate(176.28571428571428 430 200)"/><ellipse cx="430" cy="154.625" rx="34.65" ry="51.15" fill="#d98a9e" fill-opacity="0.85" transform="rotate(227.71428571428572 430 200)"/><ellipse cx="430" cy="154.625" rx="34.65" ry="51.15" fill="#d98a9e" fill-opacity="0.85" transform="rotate(279.14285714285717 430 200)"/><ellipse cx="430" cy="154.625" rx="34.65" ry="51.15" fill="#d98a9e" fill-opacity="0.85" transform="rotate(330.57142857142856 430 200)"/><ellipse cx="430" cy="172.775" rx="20.79" ry="30.69" fill="#e8a7b5" fill-opacity="0.85" transform="rotate(0 430 200)"/><ellipse cx="430" cy="172.775" rx="20.79" ry="30.69" fill="#e8a7b5" fill-opacity="0.85" transform="rotate(72 430 200)"/><ellipse cx="430" cy="172.775" rx="20.79" ry="30.69" fill="#e8a7b5" fill-opacity="0.85" transform="rotate(144 430 200)"/><ellipse cx="430" cy="172.775" rx="20.79" ry="30.69" fill="#e8a7b5" fill-opacity="0.85" transform="rotate(216 430 200)"/><ellipse cx="430" cy="172.775" rx="20.79" ry="30.69" fill="#e8a7b5" fill-opacity="0.85" transform="rotate(288 430 200)"/><circle cx="430" cy="200" r="17.6" fill="#c9a154"/><circle cx="458.6" cy="200" r="4.95" fill="#c9a154"/><circle cx="450.22325394193524" cy="220.22325394193527" r="4.95" fill="#c9a154"/><circle cx="430" cy="228.6" r="4.95" fill="#c9a154"/><circle cx="409.77674605806476" cy="220.22325394193527" r="4.95" fill="#c9a154"/><circle cx="401.4" cy="200" r="4.95" fill="#c9a154"/><circle cx="409.77674605806476" cy="179.77674605806473" r="4.95" fill="#c9a154"/><circle cx="430" cy="171.4" r="4.95" fill="#c9a154"/><circle cx="450.22325394193524" cy="179.77674605806473" r="4.95" fill="#c9a154"/></g><path d="M 390 500 c 20 0 20 -20 40 -20 s 20 20 40 20 20 -20 40 -20" fill="none" stroke="#c9a154" stroke-opacity="0.4" stroke-width="2.5" stroke-linecap="round"/>
</svg>
